# xmcd
#
# Track frame offsets: 
#        150
#        14618
#        28434
#        38678
#        52220
#        60819
#        76518
#        84592
#        99037
#        117800
#        129449
#        141263
#        150843
#        161448
#        175244
#        190150
#        203340
#        216479
#
# Disc length: 2955 seconds
#
# Revision: 0
# Processed by: cddbd v1.5.2PL0 Copyright (c) Steve Scherf et al.
# Submitted via: ExactAudioCopy v1.0b3
#
DISCID=de0b8912
DTITLE=Nick Gallant - Wanderlust
DYEAR=2013
DGENRE=Blues
TTITLE0=Wanderlust
TTITLE1=Mr. Reckless
TTITLE2=Joyous And Free
TTITLE3=Sister Pain
TTITLE4=Hourglass
TTITLE5=Blue Eyes
TTITLE6=Gonna Make It To Rincon
TTITLE7=Griffith Park
TTITLE8=Hold On
TTITLE9=Waiting For The Rain To Return
TTITLE10=So Alive
TTITLE11=Davenport
TTITLE12=Nothing Is A Mistake
TTITLE13=Mister Moon
TTITLE14=Little Boy Blue
TTITLE15=Release Me
TTITLE16=I Long For You
TTITLE17=The End
EXTD=
EXTT0=
EXTT1=
EXTT2=
EXTT3=
EXTT4=
EXTT5=
EXTT6=
EXTT7=
EXTT8=
EXTT9=
EXTT10=
EXTT11=
EXTT12=
EXTT13=
EXTT14=
EXTT15=
EXTT16=
EXTT17=
PLAYORDER=
